<svg width="88" height="88" viewBox="0 0 88 88" fill="none" xmlns="http://www.w3.org/2000/svg">
<path d="M68.2478 0H19.7522C8.84338 0 0 8.84338 0 19.7522V68.2478C0 79.1566 8.84338 88 19.7522 88H68.2478C79.1566 88 88 79.1566 88 68.2478V19.7522C88 8.84338 79.1566 0 68.2478 0Z" fill="#262626"/>
<path d="M26.6336 73.5343V15.4377H38.4849V48.7542H38.8164L51.8281 32.4275H65.0884L50.6678 49.3343L66.1658 73.5343H52.9884L43.7062 57.5391L38.4849 63.4234V73.5343H26.6336Z" fill="#EEE6DA"/>
<path d="M58.0891 29.5342C62.0421 29.5342 65.2466 26.3296 65.2466 22.3766C65.2466 18.4237 62.0421 15.2191 58.0891 15.2191C54.1361 15.2191 50.9315 18.4237 50.9315 22.3766C50.9315 26.3296 54.1361 29.5342 58.0891 29.5342Z" fill="#E95744"/>
</svg>
