<?xml version="1.0" standalone="no"?>
<!DOCTYPE svg PUBLIC "-//W3C//DTD SVG 20010904//EN"
 "http://www.w3.org/TR/2001/REC-SVG-20010904/DTD/svg10.dtd">
<svg version="1.0" xmlns="http://www.w3.org/2000/svg"
 width="700.000000pt" height="700.000000pt" viewBox="0 0 700.000000 700.000000"
 preserveAspectRatio="xMidYMid meet">
<metadata>
Created by potrace 1.11, written by Peter Selinger 2001-2013
</metadata>
<g transform="translate(0.000000,700.000000) scale(0.100000,-0.100000)"
fill="#000000" stroke="none">
<path d="M1439 6996 c-2 -2 -33 -6 -69 -10 -70 -7 -120 -15 -130 -21 -4 -2
-22 -7 -41 -10 -75 -13 -250 -79 -354 -134 -239 -125 -426 -292 -575 -511 -56
-83 -133 -229 -159 -300 -7 -19 -17 -44 -21 -55 -26 -62 -63 -215 -77 -320
-10 -77 -10 -4214 0 -4280 114 -721 658 -1254 1372 -1343 33 -4 998 -7 2145
-7 l2085 0 110 23 c549 115 973 471 1171 984 32 81 73 233 90 333 4 22 9 981
10 2130 3 2122 3 2124 -30 2278 -3 15 -8 39 -11 55 -12 57 -79 240 -117 317
-188 375 -506 655 -898 788 -94 33 -170 52 -287 73 -38 8 -4206 17 -4214 10z"/>
</g>
</svg>
